<svg xmlns="http://www.w3.org/2000/svg" xmlns:xlink="http://www.w3.org/1999/xlink" width="500" zoomAndPan="magnify" viewBox="0 0 375 374.999991" height="500" preserveAspectRatio="xMidYMid meet" version="1.0"><defs><g/><clipPath id="9715e3b30d"><path d="M 162 115 L 262.378906 115 L 262.378906 230.105469 L 162 230.105469 Z M 162 115 " clip-rule="nonzero"/></clipPath><clipPath id="fd03af739c"><path d="M 112.378906 69.605469 L 212 69.605469 L 212 163 L 112.378906 163 Z M 112.378906 69.605469 " clip-rule="nonzero"/></clipPath></defs><rect x="-37.5" width="450" fill="#ffffff" y="-37.499999" height="449.999989" fill-opacity="1"/><rect x="-37.5" width="450" fill="#ffffff" y="-37.499999" height="449.999989" fill-opacity="1"/><g clip-path="url(#9715e3b30d)"><path fill="#000000" d="M 213.835938 189.039062 C 228.351562 185.113281 240.113281 178.9375 249.113281 170.527344 C 258.105469 162.117188 262.605469 151.234375 262.605469 137.867188 L 262.605469 115.113281 L 211.882812 115.210938 L 211.882812 139.753906 C 211.882812 146.832031 208.578125 152.488281 201.96875 156.734375 C 195.359375 160.972656 185.875 163.097656 173.515625 163.097656 L 162.953125 163.097656 L 162.953125 196.046875 L 193.707031 230.128906 L 252.230469 230.128906 L 213.835938 189.039062 " fill-opacity="1" fill-rule="nonzero"/></g><g clip-path="url(#fd03af739c)"><path fill="#000000" d="M 211.402344 114.800781 L 211.402344 69.609375 L 112.398438 69.609375 L 112.398438 162.371094 L 162.472656 162.371094 L 162.472656 114.800781 L 211.402344 114.800781 " fill-opacity="1" fill-rule="nonzero"/></g><g fill="#000000" fill-opacity="1"><g transform="translate(66.13606, 282.778051)"><g><path d="M 21.296875 0 L 15.859375 -7.84375 L 9.859375 -7.84375 L 9.859375 0 L 3.34375 0 L 3.34375 -28.171875 L 15.53125 -28.171875 C 18.03125 -28.171875 20.195312 -27.753906 22.03125 -26.921875 C 23.875 -26.085938 25.289062 -24.90625 26.28125 -23.375 C 27.269531 -21.851562 27.765625 -20.046875 27.765625 -17.953125 C 27.765625 -15.859375 27.257812 -14.050781 26.25 -12.53125 C 25.25 -11.019531 23.820312 -9.863281 21.96875 -9.0625 L 28.296875 0 Z M 21.171875 -17.953125 C 21.171875 -19.535156 20.660156 -20.75 19.640625 -21.59375 C 18.617188 -22.4375 17.128906 -22.859375 15.171875 -22.859375 L 9.859375 -22.859375 L 9.859375 -13.046875 L 15.171875 -13.046875 C 17.128906 -13.046875 18.617188 -13.472656 19.640625 -14.328125 C 20.660156 -15.179688 21.171875 -16.390625 21.171875 -17.953125 Z M 21.171875 -17.953125 "/></g></g></g><g fill="#000000" fill-opacity="1"><g transform="translate(95.721744, 282.778051)"><g><path d="M 25.15625 -5.234375 L 25.15625 0 L 3.34375 0 L 3.34375 -28.171875 L 24.640625 -28.171875 L 24.640625 -22.9375 L 9.828125 -22.9375 L 9.828125 -16.828125 L 22.90625 -16.828125 L 22.90625 -11.75 L 9.828125 -11.75 L 9.828125 -5.234375 Z M 25.15625 -5.234375 "/></g></g></g><g fill="#000000" fill-opacity="1"><g transform="translate(122.731259, 282.778051)"><g><path d="M 24.03125 -14.65625 C 25.632812 -14.144531 26.894531 -13.289062 27.8125 -12.09375 C 28.726562 -10.894531 29.1875 -9.425781 29.1875 -7.6875 C 29.1875 -5.21875 28.222656 -3.316406 26.296875 -1.984375 C 24.378906 -0.660156 21.582031 0 17.90625 0 L 3.34375 0 L 3.34375 -28.171875 L 17.109375 -28.171875 C 20.546875 -28.171875 23.179688 -27.515625 25.015625 -26.203125 C 26.847656 -24.890625 27.765625 -23.101562 27.765625 -20.84375 C 27.765625 -19.476562 27.4375 -18.257812 26.78125 -17.1875 C 26.125 -16.113281 25.207031 -15.269531 24.03125 -14.65625 Z M 9.828125 -23.265625 L 9.828125 -16.625 L 16.296875 -16.625 C 17.910156 -16.625 19.132812 -16.90625 19.96875 -17.46875 C 20.800781 -18.03125 21.21875 -18.863281 21.21875 -19.96875 C 21.21875 -21.0625 20.800781 -21.882812 19.96875 -22.4375 C 19.132812 -22.988281 17.910156 -23.265625 16.296875 -23.265625 Z M 17.421875 -4.90625 C 19.140625 -4.90625 20.4375 -5.1875 21.3125 -5.75 C 22.1875 -6.3125 22.625 -7.1875 22.625 -8.375 C 22.625 -10.707031 20.890625 -11.875 17.421875 -11.875 L 9.828125 -11.875 L 9.828125 -4.90625 Z M 17.421875 -4.90625 "/></g></g></g><g fill="#000000" fill-opacity="1"><g transform="translate(153.524523, 282.778051)"><g><path d="M 25.15625 -5.234375 L 25.15625 0 L 3.34375 0 L 3.34375 -28.171875 L 24.640625 -28.171875 L 24.640625 -22.9375 L 9.828125 -22.9375 L 9.828125 -16.828125 L 22.90625 -16.828125 L 22.90625 -11.75 L 9.828125 -11.75 L 9.828125 -5.234375 Z M 25.15625 -5.234375 "/></g></g></g><g fill="#000000" fill-opacity="1"><g transform="translate(180.534038, 282.778051)"><g><path d="M 3.34375 -28.171875 L 9.859375 -28.171875 L 9.859375 -5.3125 L 23.984375 -5.3125 L 23.984375 0 L 3.34375 0 Z M 3.34375 -28.171875 "/></g></g></g><g fill="#000000" fill-opacity="1"><g transform="translate(204.846628, 282.778051)"><g><path d="M 3.34375 -28.171875 L 9.859375 -28.171875 L 9.859375 -5.3125 L 23.984375 -5.3125 L 23.984375 0 L 3.34375 0 Z M 3.34375 -28.171875 "/></g></g></g><g fill="#000000" fill-opacity="1"><g transform="translate(229.159219, 282.778051)"><g><path d="M 3.34375 -28.171875 L 9.859375 -28.171875 L 9.859375 0 L 3.34375 0 Z M 3.34375 -28.171875 "/></g></g></g><g fill="#000000" fill-opacity="1"><g transform="translate(242.362092, 282.778051)"><g><path d="M 16.984375 0.484375 C 14.054688 0.484375 11.414062 -0.144531 9.0625 -1.40625 C 6.71875 -2.664062 4.878906 -4.398438 3.546875 -6.609375 C 2.222656 -8.828125 1.5625 -11.320312 1.5625 -14.09375 C 1.5625 -16.851562 2.222656 -19.335938 3.546875 -21.546875 C 4.878906 -23.765625 6.71875 -25.503906 9.0625 -26.765625 C 11.414062 -28.023438 14.054688 -28.65625 16.984375 -28.65625 C 19.910156 -28.65625 22.539062 -28.023438 24.875 -26.765625 C 27.207031 -25.503906 29.046875 -23.765625 30.390625 -21.546875 C 31.734375 -19.335938 32.40625 -16.851562 32.40625 -14.09375 C 32.40625 -11.320312 31.734375 -8.828125 30.390625 -6.609375 C 29.046875 -4.398438 27.207031 -2.664062 24.875 -1.40625 C 22.539062 -0.144531 19.910156 0.484375 16.984375 0.484375 Z M 16.984375 -5.078125 C 18.648438 -5.078125 20.148438 -5.457031 21.484375 -6.21875 C 22.828125 -6.976562 23.878906 -8.039062 24.640625 -9.40625 C 25.410156 -10.78125 25.796875 -12.34375 25.796875 -14.09375 C 25.796875 -15.832031 25.410156 -17.382812 24.640625 -18.75 C 23.878906 -20.125 22.828125 -21.191406 21.484375 -21.953125 C 20.148438 -22.722656 18.648438 -23.109375 16.984375 -23.109375 C 15.316406 -23.109375 13.8125 -22.722656 12.46875 -21.953125 C 11.132812 -21.191406 10.082031 -20.125 9.3125 -18.75 C 8.550781 -17.382812 8.171875 -15.832031 8.171875 -14.09375 C 8.171875 -12.34375 8.550781 -10.78125 9.3125 -9.40625 C 10.082031 -8.039062 11.132812 -6.976562 12.46875 -6.21875 C 13.8125 -5.457031 15.316406 -5.078125 16.984375 -5.078125 Z M 16.984375 -5.078125 "/></g></g></g><g fill="#000000" fill-opacity="1"><g transform="translate(276.335307, 282.778051)"><g><path d="M 29.1875 -28.171875 L 29.1875 0 L 23.828125 0 L 9.78125 -17.109375 L 9.78125 0 L 3.34375 0 L 3.34375 -28.171875 L 8.734375 -28.171875 L 22.734375 -11.0625 L 22.734375 -28.171875 Z M 29.1875 -28.171875 "/></g></g></g><g fill="#000000" fill-opacity="1"><g transform="translate(69.085832, 295.968102)"><g><path d="M 0.828125 -7.015625 L 4.015625 -7.015625 C 4.773438 -7.015625 5.445312 -6.867188 6.03125 -6.578125 C 6.613281 -6.285156 7.066406 -5.875 7.390625 -5.34375 C 7.710938 -4.820312 7.875 -4.207031 7.875 -3.5 C 7.875 -2.800781 7.710938 -2.1875 7.390625 -1.65625 C 7.066406 -1.132812 6.613281 -0.726562 6.03125 -0.4375 C 5.445312 -0.144531 4.773438 0 4.015625 0 L 0.828125 0 Z M 3.9375 -1.328125 C 4.632812 -1.328125 5.191406 -1.519531 5.609375 -1.90625 C 6.023438 -2.300781 6.234375 -2.832031 6.234375 -3.5 C 6.234375 -4.164062 6.023438 -4.691406 5.609375 -5.078125 C 5.191406 -5.472656 4.632812 -5.671875 3.9375 -5.671875 L 2.453125 -5.671875 L 2.453125 -1.328125 Z M 3.9375 -1.328125 "/></g></g></g><g fill="#000000" fill-opacity="1"><g transform="translate(80.722894, 295.968102)"><g><path d="M 6.265625 -1.296875 L 6.265625 0 L 0.828125 0 L 0.828125 -7.015625 L 6.125 -7.015625 L 6.125 -5.703125 L 2.4375 -5.703125 L 2.4375 -4.1875 L 5.703125 -4.1875 L 5.703125 -2.921875 L 2.4375 -2.921875 L 2.4375 -1.296875 Z M 6.265625 -1.296875 "/></g></g></g><g fill="#000000" fill-opacity="1"><g transform="translate(90.807928, 295.968102)"><g><path d="M 3.140625 0.125 C 2.578125 0.125 2.035156 0.0507812 1.515625 -0.09375 C 1.003906 -0.25 0.59375 -0.445312 0.28125 -0.6875 L 0.828125 -1.90625 C 1.128906 -1.6875 1.488281 -1.507812 1.90625 -1.375 C 2.320312 -1.25 2.734375 -1.1875 3.140625 -1.1875 C 3.609375 -1.1875 3.953125 -1.253906 4.171875 -1.390625 C 4.390625 -1.523438 4.5 -1.707031 4.5 -1.9375 C 4.5 -2.101562 4.429688 -2.238281 4.296875 -2.34375 C 4.171875 -2.457031 4.003906 -2.546875 3.796875 -2.609375 C 3.597656 -2.679688 3.320312 -2.753906 2.96875 -2.828125 C 2.4375 -2.960938 2 -3.09375 1.65625 -3.21875 C 1.320312 -3.34375 1.03125 -3.546875 0.78125 -3.828125 C 0.539062 -4.109375 0.421875 -4.484375 0.421875 -4.953125 C 0.421875 -5.359375 0.53125 -5.722656 0.75 -6.046875 C 0.96875 -6.378906 1.296875 -6.640625 1.734375 -6.828125 C 2.179688 -7.023438 2.726562 -7.125 3.375 -7.125 C 3.820312 -7.125 4.257812 -7.070312 4.6875 -6.96875 C 5.113281 -6.863281 5.488281 -6.710938 5.8125 -6.515625 L 5.3125 -5.28125 C 4.664062 -5.644531 4.015625 -5.828125 3.359375 -5.828125 C 2.910156 -5.828125 2.578125 -5.753906 2.359375 -5.609375 C 2.140625 -5.460938 2.03125 -5.269531 2.03125 -5.03125 C 2.03125 -4.789062 2.15625 -4.609375 2.40625 -4.484375 C 2.65625 -4.367188 3.039062 -4.253906 3.5625 -4.140625 C 4.09375 -4.015625 4.523438 -3.890625 4.859375 -3.765625 C 5.203125 -3.640625 5.492188 -3.4375 5.734375 -3.15625 C 5.984375 -2.882812 6.109375 -2.515625 6.109375 -2.046875 C 6.109375 -1.648438 5.992188 -1.285156 5.765625 -0.953125 C 5.546875 -0.617188 5.210938 -0.351562 4.765625 -0.15625 C 4.316406 0.03125 3.773438 0.125 3.140625 0.125 Z M 3.140625 0.125 "/></g></g></g><g fill="#000000" fill-opacity="1"><g transform="translate(100.562538, 295.968102)"><g><path d="M 0.828125 -7.015625 L 2.453125 -7.015625 L 2.453125 0 L 0.828125 0 Z M 0.828125 -7.015625 "/></g></g></g><g fill="#000000" fill-opacity="1"><g transform="translate(107.213093, 295.968102)"><g/></g></g><g fill="#000000" fill-opacity="1"><g transform="translate(113.413064, 295.968102)"><g><path d="M 5.296875 0 L 3.953125 -1.953125 L 2.453125 -1.953125 L 2.453125 0 L 0.828125 0 L 0.828125 -7.015625 L 3.859375 -7.015625 C 4.484375 -7.015625 5.023438 -6.910156 5.484375 -6.703125 C 5.941406 -6.492188 6.289062 -6.195312 6.53125 -5.8125 C 6.78125 -5.4375 6.90625 -4.988281 6.90625 -4.46875 C 6.90625 -3.945312 6.78125 -3.492188 6.53125 -3.109375 C 6.28125 -2.734375 5.925781 -2.445312 5.46875 -2.25 L 7.046875 0 Z M 5.265625 -4.46875 C 5.265625 -4.863281 5.132812 -5.164062 4.875 -5.375 C 4.625 -5.582031 4.257812 -5.6875 3.78125 -5.6875 L 2.453125 -5.6875 L 2.453125 -3.25 L 3.78125 -3.25 C 4.257812 -3.25 4.625 -3.351562 4.875 -3.5625 C 5.132812 -3.78125 5.265625 -4.082031 5.265625 -4.46875 Z M 5.265625 -4.46875 "/></g></g></g><g fill="#000000" fill-opacity="1"><g transform="translate(124.138935, 295.968102)"><g><path d="M 4.234375 0.125 C 3.503906 0.125 2.84375 -0.03125 2.25 -0.34375 C 1.664062 -0.664062 1.207031 -1.097656 0.875 -1.640625 C 0.550781 -2.191406 0.390625 -2.8125 0.390625 -3.5 C 0.390625 -4.1875 0.550781 -4.804688 0.875 -5.359375 C 1.207031 -5.910156 1.664062 -6.34375 2.25 -6.65625 C 2.84375 -6.96875 3.503906 -7.125 4.234375 -7.125 C 4.953125 -7.125 5.601562 -6.96875 6.1875 -6.65625 C 6.769531 -6.34375 7.226562 -5.910156 7.5625 -5.359375 C 7.894531 -4.804688 8.0625 -4.1875 8.0625 -3.5 C 8.0625 -2.8125 7.894531 -2.191406 7.5625 -1.640625 C 7.226562 -1.097656 6.769531 -0.664062 6.1875 -0.34375 C 5.601562 -0.03125 4.953125 0.125 4.234375 0.125 Z M 4.234375 -1.265625 C 4.640625 -1.265625 5.007812 -1.359375 5.34375 -1.546875 C 5.675781 -1.734375 5.9375 -2 6.125 -2.34375 C 6.320312 -2.6875 6.421875 -3.070312 6.421875 -3.5 C 6.421875 -3.9375 6.320312 -4.320312 6.125 -4.65625 C 5.9375 -5 5.675781 -5.265625 5.34375 -5.453125 C 5.007812 -5.648438 4.640625 -5.75 4.234375 -5.75 C 3.816406 -5.75 3.441406 -5.648438 3.109375 -5.453125 C 2.773438 -5.265625 2.507812 -5 2.3125 -4.65625 C 2.125 -4.320312 2.03125 -3.9375 2.03125 -3.5 C 2.03125 -3.070312 2.125 -2.6875 2.3125 -2.34375 C 2.507812 -2 2.773438 -1.734375 3.109375 -1.546875 C 3.441406 -1.359375 3.816406 -1.265625 4.234375 -1.265625 Z M 4.234375 -1.265625 "/></g></g></g><g fill="#000000" fill-opacity="1"><g transform="translate(135.956233, 295.968102)"><g><path d="M 4.234375 0.125 C 3.503906 0.125 2.84375 -0.03125 2.25 -0.34375 C 1.664062 -0.664062 1.207031 -1.097656 0.875 -1.640625 C 0.550781 -2.191406 0.390625 -2.8125 0.390625 -3.5 C 0.390625 -4.1875 0.550781 -4.804688 0.875 -5.359375 C 1.207031 -5.910156 1.664062 -6.34375 2.25 -6.65625 C 2.84375 -6.96875 3.503906 -7.125 4.234375 -7.125 C 4.953125 -7.125 5.601562 -6.96875 6.1875 -6.65625 C 6.769531 -6.34375 7.226562 -5.910156 7.5625 -5.359375 C 7.894531 -4.804688 8.0625 -4.1875 8.0625 -3.5 C 8.0625 -2.8125 7.894531 -2.191406 7.5625 -1.640625 C 7.226562 -1.097656 6.769531 -0.664062 6.1875 -0.34375 C 5.601562 -0.03125 4.953125 0.125 4.234375 0.125 Z M 4.234375 -1.265625 C 4.640625 -1.265625 5.007812 -1.359375 5.34375 -1.546875 C 5.675781 -1.734375 5.9375 -2 6.125 -2.34375 C 6.320312 -2.6875 6.421875 -3.070312 6.421875 -3.5 C 6.421875 -3.9375 6.320312 -4.320312 6.125 -4.65625 C 5.9375 -5 5.675781 -5.265625 5.34375 -5.453125 C 5.007812 -5.648438 4.640625 -5.75 4.234375 -5.75 C 3.816406 -5.75 3.441406 -5.648438 3.109375 -5.453125 C 2.773438 -5.265625 2.507812 -5 2.3125 -4.65625 C 2.125 -4.320312 2.03125 -3.9375 2.03125 -3.5 C 2.03125 -3.070312 2.125 -2.6875 2.3125 -2.34375 C 2.507812 -2 2.773438 -1.734375 3.109375 -1.546875 C 3.441406 -1.359375 3.816406 -1.265625 4.234375 -1.265625 Z M 4.234375 -1.265625 "/></g></g></g><g fill="#000000" fill-opacity="1"><g transform="translate(147.773531, 295.968102)"><g><path d="M 2.28125 -5.6875 L 0.046875 -5.6875 L 0.046875 -7.015625 L 6.15625 -7.015625 L 6.15625 -5.6875 L 3.90625 -5.6875 L 3.90625 0 L 2.28125 0 Z M 2.28125 -5.6875 "/></g></g></g><g fill="#000000" fill-opacity="1"><g transform="translate(157.327876, 295.968102)"><g><path d="M 3.140625 0.125 C 2.578125 0.125 2.035156 0.0507812 1.515625 -0.09375 C 1.003906 -0.25 0.59375 -0.445312 0.28125 -0.6875 L 0.828125 -1.90625 C 1.128906 -1.6875 1.488281 -1.507812 1.90625 -1.375 C 2.320312 -1.25 2.734375 -1.1875 3.140625 -1.1875 C 3.609375 -1.1875 3.953125 -1.253906 4.171875 -1.390625 C 4.390625 -1.523438 4.5 -1.707031 4.5 -1.9375 C 4.5 -2.101562 4.429688 -2.238281 4.296875 -2.34375 C 4.171875 -2.457031 4.003906 -2.546875 3.796875 -2.609375 C 3.597656 -2.679688 3.320312 -2.753906 2.96875 -2.828125 C 2.4375 -2.960938 2 -3.09375 1.65625 -3.21875 C 1.320312 -3.34375 1.03125 -3.546875 0.78125 -3.828125 C 0.539062 -4.109375 0.421875 -4.484375 0.421875 -4.953125 C 0.421875 -5.359375 0.53125 -5.722656 0.75 -6.046875 C 0.96875 -6.378906 1.296875 -6.640625 1.734375 -6.828125 C 2.179688 -7.023438 2.726562 -7.125 3.375 -7.125 C 3.820312 -7.125 4.257812 -7.070312 4.6875 -6.96875 C 5.113281 -6.863281 5.488281 -6.710938 5.8125 -6.515625 L 5.3125 -5.28125 C 4.664062 -5.644531 4.015625 -5.828125 3.359375 -5.828125 C 2.910156 -5.828125 2.578125 -5.753906 2.359375 -5.609375 C 2.140625 -5.460938 2.03125 -5.269531 2.03125 -5.03125 C 2.03125 -4.789062 2.15625 -4.609375 2.40625 -4.484375 C 2.65625 -4.367188 3.039062 -4.253906 3.5625 -4.140625 C 4.09375 -4.015625 4.523438 -3.890625 4.859375 -3.765625 C 5.203125 -3.640625 5.492188 -3.4375 5.734375 -3.15625 C 5.984375 -2.882812 6.109375 -2.515625 6.109375 -2.046875 C 6.109375 -1.648438 5.992188 -1.285156 5.765625 -0.953125 C 5.546875 -0.617188 5.210938 -0.351562 4.765625 -0.15625 C 4.316406 0.03125 3.773438 0.125 3.140625 0.125 Z M 3.140625 0.125 "/></g></g></g><g fill="#000000" fill-opacity="1"><g transform="translate(167.082489, 295.968102)"><g><path d="M 1.328125 -1.859375 C 1.609375 -1.859375 1.835938 -1.769531 2.015625 -1.59375 C 2.191406 -1.414062 2.28125 -1.1875 2.28125 -0.90625 C 2.28125 -0.769531 2.265625 -0.632812 2.234375 -0.5 C 2.203125 -0.363281 2.128906 -0.164062 2.015625 0.09375 L 1.4375 1.546875 L 0.453125 1.546875 L 0.890625 -0.046875 C 0.722656 -0.117188 0.585938 -0.226562 0.484375 -0.375 C 0.390625 -0.519531 0.34375 -0.695312 0.34375 -0.90625 C 0.34375 -1.1875 0.4375 -1.414062 0.625 -1.59375 C 0.8125 -1.769531 1.046875 -1.859375 1.328125 -1.859375 Z M 1.328125 -1.859375 "/></g></g></g><g fill="#000000" fill-opacity="1"><g transform="translate(173.07218, 295.968102)"><g/></g></g><g fill="#000000" fill-opacity="1"><g transform="translate(179.272148, 295.968102)"><g><path d="M 7.21875 0 L 7.203125 -4.203125 L 5.140625 -0.734375 L 4.40625 -0.734375 L 2.359375 -4.109375 L 2.359375 0 L 0.828125 0 L 0.828125 -7.015625 L 2.171875 -7.015625 L 4.796875 -2.65625 L 7.375 -7.015625 L 8.71875 -7.015625 L 8.734375 0 Z M 7.21875 0 "/></g></g></g><g fill="#000000" fill-opacity="1"><g transform="translate(192.200901, 295.968102)"><g><path d="M 4.234375 0.125 C 3.503906 0.125 2.84375 -0.03125 2.25 -0.34375 C 1.664062 -0.664062 1.207031 -1.097656 0.875 -1.640625 C 0.550781 -2.191406 0.390625 -2.8125 0.390625 -3.5 C 0.390625 -4.1875 0.550781 -4.804688 0.875 -5.359375 C 1.207031 -5.910156 1.664062 -6.34375 2.25 -6.65625 C 2.84375 -6.96875 3.503906 -7.125 4.234375 -7.125 C 4.953125 -7.125 5.601562 -6.96875 6.1875 -6.65625 C 6.769531 -6.34375 7.226562 -5.910156 7.5625 -5.359375 C 7.894531 -4.804688 8.0625 -4.1875 8.0625 -3.5 C 8.0625 -2.8125 7.894531 -2.191406 7.5625 -1.640625 C 7.226562 -1.097656 6.769531 -0.664062 6.1875 -0.34375 C 5.601562 -0.03125 4.953125 0.125 4.234375 0.125 Z M 4.234375 -1.265625 C 4.640625 -1.265625 5.007812 -1.359375 5.34375 -1.546875 C 5.675781 -1.734375 5.9375 -2 6.125 -2.34375 C 6.320312 -2.6875 6.421875 -3.070312 6.421875 -3.5 C 6.421875 -3.9375 6.320312 -4.320312 6.125 -4.65625 C 5.9375 -5 5.675781 -5.265625 5.34375 -5.453125 C 5.007812 -5.648438 4.640625 -5.75 4.234375 -5.75 C 3.816406 -5.75 3.441406 -5.648438 3.109375 -5.453125 C 2.773438 -5.265625 2.507812 -5 2.3125 -4.65625 C 2.125 -4.320312 2.03125 -3.9375 2.03125 -3.5 C 2.03125 -3.070312 2.125 -2.6875 2.3125 -2.34375 C 2.507812 -2 2.773438 -1.734375 3.109375 -1.546875 C 3.441406 -1.359375 3.816406 -1.265625 4.234375 -1.265625 Z M 4.234375 -1.265625 "/></g></g></g><g fill="#000000" fill-opacity="1"><g transform="translate(204.018195, 295.968102)"><g><path d="M 0.828125 -7.015625 L 4.015625 -7.015625 C 4.773438 -7.015625 5.445312 -6.867188 6.03125 -6.578125 C 6.613281 -6.285156 7.066406 -5.875 7.390625 -5.34375 C 7.710938 -4.820312 7.875 -4.207031 7.875 -3.5 C 7.875 -2.800781 7.710938 -2.1875 7.390625 -1.65625 C 7.066406 -1.132812 6.613281 -0.726562 6.03125 -0.4375 C 5.445312 -0.144531 4.773438 0 4.015625 0 L 0.828125 0 Z M 3.9375 -1.328125 C 4.632812 -1.328125 5.191406 -1.519531 5.609375 -1.90625 C 6.023438 -2.300781 6.234375 -2.832031 6.234375 -3.5 C 6.234375 -4.164062 6.023438 -4.691406 5.609375 -5.078125 C 5.191406 -5.472656 4.632812 -5.671875 3.9375 -5.671875 L 2.453125 -5.671875 L 2.453125 -1.328125 Z M 3.9375 -1.328125 "/></g></g></g><g fill="#000000" fill-opacity="1"><g transform="translate(215.655253, 295.968102)"><g><path d="M 6.265625 -1.296875 L 6.265625 0 L 0.828125 0 L 0.828125 -7.015625 L 6.125 -7.015625 L 6.125 -5.703125 L 2.4375 -5.703125 L 2.4375 -4.1875 L 5.703125 -4.1875 L 5.703125 -2.921875 L 2.4375 -2.921875 L 2.4375 -1.296875 Z M 6.265625 -1.296875 "/></g></g></g><g fill="#000000" fill-opacity="1"><g transform="translate(225.740283, 295.968102)"><g><path d="M 5.296875 0 L 3.953125 -1.953125 L 2.453125 -1.953125 L 2.453125 0 L 0.828125 0 L 0.828125 -7.015625 L 3.859375 -7.015625 C 4.484375 -7.015625 5.023438 -6.910156 5.484375 -6.703125 C 5.941406 -6.492188 6.289062 -6.195312 6.53125 -5.8125 C 6.78125 -5.4375 6.90625 -4.988281 6.90625 -4.46875 C 6.90625 -3.945312 6.78125 -3.492188 6.53125 -3.109375 C 6.28125 -2.734375 5.925781 -2.445312 5.46875 -2.25 L 7.046875 0 Z M 5.265625 -4.46875 C 5.265625 -4.863281 5.132812 -5.164062 4.875 -5.375 C 4.625 -5.582031 4.257812 -5.6875 3.78125 -5.6875 L 2.453125 -5.6875 L 2.453125 -3.25 L 3.78125 -3.25 C 4.257812 -3.25 4.625 -3.351562 4.875 -3.5625 C 5.132812 -3.78125 5.265625 -4.082031 5.265625 -4.46875 Z M 5.265625 -4.46875 "/></g></g></g><g fill="#000000" fill-opacity="1"><g transform="translate(236.46615, 295.968102)"><g><path d="M 7.265625 -7.015625 L 7.265625 0 L 5.921875 0 L 2.4375 -4.25 L 2.4375 0 L 0.828125 0 L 0.828125 -7.015625 L 2.171875 -7.015625 L 5.65625 -2.75 L 5.65625 -7.015625 Z M 7.265625 -7.015625 "/></g></g></g><g fill="#000000" fill-opacity="1"><g transform="translate(247.92297, 295.968102)"><g/></g></g><g fill="#000000" fill-opacity="1"><g transform="translate(254.122938, 295.968102)"><g><path d="M 7.21875 0 L 7.203125 -4.203125 L 5.140625 -0.734375 L 4.40625 -0.734375 L 2.359375 -4.109375 L 2.359375 0 L 0.828125 0 L 0.828125 -7.015625 L 2.171875 -7.015625 L 4.796875 -2.65625 L 7.375 -7.015625 L 8.71875 -7.015625 L 8.734375 0 Z M 7.21875 0 "/></g></g></g><g fill="#000000" fill-opacity="1"><g transform="translate(267.051691, 295.968102)"><g><path d="M 4.234375 0.125 C 3.503906 0.125 2.84375 -0.03125 2.25 -0.34375 C 1.664062 -0.664062 1.207031 -1.097656 0.875 -1.640625 C 0.550781 -2.191406 0.390625 -2.8125 0.390625 -3.5 C 0.390625 -4.1875 0.550781 -4.804688 0.875 -5.359375 C 1.207031 -5.910156 1.664062 -6.34375 2.25 -6.65625 C 2.84375 -6.96875 3.503906 -7.125 4.234375 -7.125 C 4.953125 -7.125 5.601562 -6.96875 6.1875 -6.65625 C 6.769531 -6.34375 7.226562 -5.910156 7.5625 -5.359375 C 7.894531 -4.804688 8.0625 -4.1875 8.0625 -3.5 C 8.0625 -2.8125 7.894531 -2.191406 7.5625 -1.640625 C 7.226562 -1.097656 6.769531 -0.664062 6.1875 -0.34375 C 5.601562 -0.03125 4.953125 0.125 4.234375 0.125 Z M 4.234375 -1.265625 C 4.640625 -1.265625 5.007812 -1.359375 5.34375 -1.546875 C 5.675781 -1.734375 5.9375 -2 6.125 -2.34375 C 6.320312 -2.6875 6.421875 -3.070312 6.421875 -3.5 C 6.421875 -3.9375 6.320312 -4.320312 6.125 -4.65625 C 5.9375 -5 5.675781 -5.265625 5.34375 -5.453125 C 5.007812 -5.648438 4.640625 -5.75 4.234375 -5.75 C 3.816406 -5.75 3.441406 -5.648438 3.109375 -5.453125 C 2.773438 -5.265625 2.507812 -5 2.3125 -4.65625 C 2.125 -4.320312 2.03125 -3.9375 2.03125 -3.5 C 2.03125 -3.070312 2.125 -2.6875 2.3125 -2.34375 C 2.507812 -2 2.773438 -1.734375 3.109375 -1.546875 C 3.441406 -1.359375 3.816406 -1.265625 4.234375 -1.265625 Z M 4.234375 -1.265625 "/></g></g></g><g fill="#000000" fill-opacity="1"><g transform="translate(278.868985, 295.968102)"><g><path d="M 7.578125 -7.015625 L 4.53125 0 L 2.9375 0 L -0.09375 -7.015625 L 1.65625 -7.015625 L 3.796875 -2 L 5.953125 -7.015625 Z M 7.578125 -7.015625 "/></g></g></g><g fill="#000000" fill-opacity="1"><g transform="translate(289.705002, 295.968102)"><g><path d="M 6.265625 -1.296875 L 6.265625 0 L 0.828125 0 L 0.828125 -7.015625 L 6.125 -7.015625 L 6.125 -5.703125 L 2.4375 -5.703125 L 2.4375 -4.1875 L 5.703125 -4.1875 L 5.703125 -2.921875 L 2.4375 -2.921875 L 2.4375 -1.296875 Z M 6.265625 -1.296875 "/></g></g></g><g fill="#000000" fill-opacity="1"><g transform="translate(299.790032, 295.968102)"><g><path d="M 3.140625 0.125 C 2.578125 0.125 2.035156 0.0507812 1.515625 -0.09375 C 1.003906 -0.25 0.59375 -0.445312 0.28125 -0.6875 L 0.828125 -1.90625 C 1.128906 -1.6875 1.488281 -1.507812 1.90625 -1.375 C 2.320312 -1.25 2.734375 -1.1875 3.140625 -1.1875 C 3.609375 -1.1875 3.953125 -1.253906 4.171875 -1.390625 C 4.390625 -1.523438 4.5 -1.707031 4.5 -1.9375 C 4.5 -2.101562 4.429688 -2.238281 4.296875 -2.34375 C 4.171875 -2.457031 4.003906 -2.546875 3.796875 -2.609375 C 3.597656 -2.679688 3.320312 -2.753906 2.96875 -2.828125 C 2.4375 -2.960938 2 -3.09375 1.65625 -3.21875 C 1.320312 -3.34375 1.03125 -3.546875 0.78125 -3.828125 C 0.539062 -4.109375 0.421875 -4.484375 0.421875 -4.953125 C 0.421875 -5.359375 0.53125 -5.722656 0.75 -6.046875 C 0.96875 -6.378906 1.296875 -6.640625 1.734375 -6.828125 C 2.179688 -7.023438 2.726562 -7.125 3.375 -7.125 C 3.820312 -7.125 4.257812 -7.070312 4.6875 -6.96875 C 5.113281 -6.863281 5.488281 -6.710938 5.8125 -6.515625 L 5.3125 -5.28125 C 4.664062 -5.644531 4.015625 -5.828125 3.359375 -5.828125 C 2.910156 -5.828125 2.578125 -5.753906 2.359375 -5.609375 C 2.140625 -5.460938 2.03125 -5.269531 2.03125 -5.03125 C 2.03125 -4.789062 2.15625 -4.609375 2.40625 -4.484375 C 2.65625 -4.367188 3.039062 -4.253906 3.5625 -4.140625 C 4.09375 -4.015625 4.523438 -3.890625 4.859375 -3.765625 C 5.203125 -3.640625 5.492188 -3.4375 5.734375 -3.15625 C 5.984375 -2.882812 6.109375 -2.515625 6.109375 -2.046875 C 6.109375 -1.648438 5.992188 -1.285156 5.765625 -0.953125 C 5.546875 -0.617188 5.210938 -0.351562 4.765625 -0.15625 C 4.316406 0.03125 3.773438 0.125 3.140625 0.125 Z M 3.140625 0.125 "/></g></g></g></svg>